<?xml version="1.0" standalone="no"?>
<!DOCTYPE svg PUBLIC "-//W3C//DTD SVG 20010904//EN"
 "http://www.w3.org/TR/2001/REC-SVG-20010904/DTD/svg10.dtd">
<svg version="1.0" xmlns="http://www.w3.org/2000/svg"
 width="1024.000000pt" height="1024.000000pt" viewBox="0 0 1024.000000 1024.000000"
 preserveAspectRatio="xMidYMid meet">

<g transform="translate(0.000000,1024.000000) scale(0.100000,-0.100000)"
fill="#000000" stroke="none">
<path d="M4842 8495 c-201 -32 -377 -86 -564 -170 -497 -224 -894 -664 -1068
-1186 -90 -268 -128 -593 -100 -844 47 -412 195 -772 448 -1090 154 -193 268
-297 463 -420 256 -163 497 -253 804 -301 50 -7 93 -14 98 -14 4 0 7 -53 7
-117 l-1 -118 -80 -38 c-63 -30 -87 -47 -112 -83 -69 -97 -66 -54 -67 -927 0
-767 1 -789 20 -848 78 -231 317 -359 543 -289 129 40 223 124 285 256 l27 59
0 830 0 830 -37 56 c-42 66 -87 103 -155 129 l-48 18 -3 125 -3 124 78 7 c142
11 386 82 565 164 179 81 395 232 561 391 175 168 302 344 411 572 79 163 116
276 158 479 30 146 32 168 32 375 1 281 -26 452 -110 700 -106 316 -326 641
-575 850 -294 247 -559 378 -932 462 -97 22 -141 25 -337 28 -157 3 -250 0
-308 -10z m546 -275 c62 -11 167 -38 235 -60 160 -53 408 -178 489 -248 15
-13 7 -25 -99 -143 -68 -76 -120 -126 -127 -122 -6 4 -42 27 -79 51 -214 138
-530 210 -813 184 -341 -31 -647 -173 -884 -413 -210 -212 -323 -416 -383
-690 -34 -152 -41 -250 -28 -396 24 -266 109 -496 264 -712 38 -53 90 -117
115 -143 l45 -47 -44 -48 c-24 -27 -74 -81 -111 -122 -43 -46 -73 -71 -82 -68
-18 7 -135 144 -191 224 -96 137 -200 351 -249 514 -143 476 -76 1002 182
1416 189 306 429 523 742 672 342 162 677 212 1018 151z m1009 -563 c125 -132
267 -364 338 -554 34 -88 83 -292 95 -393 14 -122 12 -349 -5 -462 -30 -199
-79 -355 -170 -539 -83 -170 -193 -319 -344 -469 -145 -144 -267 -231 -446
-319 -225 -111 -399 -160 -643 -181 -348 -30 -750 75 -1073 282 l-67 43 117
122 116 121 103 -58 c111 -63 264 -118 409 -147 67 -13 134 -18 278 -17 169 0
202 3 301 26 369 87 655 287 870 609 357 535 308 1238 -119 1696 l-70 74 114
118 c63 65 117 119 120 120 4 0 38 -32 76 -72z m-1407 -627 l0 -609 -112 -123
c-89 -98 -450 -486 -565 -608 l-23 -24 -46 44 c-116 113 -235 342 -280 536
-26 111 -26 410 0 504 89 324 327 619 616 764 124 63 309 122 388 125 l22 1 0
-610z m394 573 c162 -42 346 -129 330 -154 -3 -5 -49 -56 -103 -112 -116 -122
-303 -326 -348 -382 l-32 -39 -3 357 -3 357 29 0 c16 0 75 -12 130 -27z m692
-481 c69 -103 125 -221 158 -336 38 -131 44 -122 -81 -129 -149 -10 -833 -9
-833 1 0 9 143 166 294 322 61 63 156 164 211 224 l99 109 48 -54 c26 -30 73
-91 104 -137z m69 -789 c-15 -90 -34 -149 -81 -251 -33 -72 -147 -245 -179
-272 -14 -12 -30 0 -133 101 -105 104 -244 237 -447 432 l-70 67 461 0 461 0
-12 -77z m-872 -305 c89 -84 215 -206 282 -271 l120 -117 -35 -30 c-79 -69
-269 -148 -405 -170 -122 -19 -114 -15 -117 -68 l-3 -47 -80 3 c-178 6 -353
55 -503 138 l-62 35 212 226 c117 124 260 277 318 339 58 62 107 113 108 114
2 0 76 -69 165 -152z m50 -2285 c9 -268 8 -1029 -2 -1185 -7 -110 -11 -132
-35 -172 -82 -140 -280 -133 -361 14 l-30 55 0 742 0 743 211 0 211 0 6 -197z"/>
<path d="M4247 6923 c-4 -3 -7 -33 -7 -65 l0 -58 -74 0 c-80 0 -103 -13 -91
-49 8 -25 43 -35 90 -27 35 7 35 7 35 -29 l0 -35 -65 0 c-56 0 -66 -3 -76 -22
-18 -34 19 -58 87 -58 53 0 54 0 54 -30 0 -29 -1 -29 -61 -32 -69 -3 -94 -22
-73 -55 8 -13 27 -19 73 -21 60 -3 61 -3 61 -32 0 -28 -2 -29 -56 -32 -64 -3
-88 -23 -68 -55 10 -15 23 -17 83 -15 l71 4 0 -50 c0 -68 7 -82 40 -82 33 0
40 14 40 81 l0 49 46 0 45 0 -2 -53 c-3 -63 4 -77 36 -77 28 0 35 16 35 81 l0
49 46 0 47 0 -7 -54 c-7 -60 6 -80 46 -74 21 3 23 9 26 66 l3 62 68 -2 c78 -2
91 4 91 38 0 31 -38 48 -76 34 -39 -15 -44 -13 -44 25 l0 35 51 0 c58 0 89 13
89 38 0 31 -22 42 -87 42 l-63 0 0 30 c0 30 0 30 59 30 77 0 91 6 91 40 0 34
-14 40 -86 40 l-54 0 0 36 0 37 40 -7 c47 -7 80 6 80 33 0 33 -25 43 -95 39
l-65 -3 0 56 c0 62 -15 85 -50 74 -17 -6 -20 -15 -20 -71 l0 -64 -45 0 -45 0
0 58 c0 60 -11 82 -42 82 -25 0 -38 -31 -38 -89 l0 -51 -40 0 -40 0 0 58 c0
32 -5 63 -12 70 -13 13 -41 16 -51 5z"/>
<path d="M3771 1583 c-19 -9 -47 -37 -63 -62 -26 -41 -29 -53 -26 -108 3 -51
9 -69 34 -100 109 -136 314 -67 314 106 0 135 -139 223 -259 164z m145 -97
c43 -43 46 -90 8 -135 -56 -67 -164 -22 -164 69 0 33 6 48 29 71 41 41 83 39
127 -5z"/>
<path d="M4127 1582 c-14 -16 -17 -43 -17 -168 0 -158 4 -174 46 -174 24 0 34
17 34 60 0 36 23 50 82 50 86 0 140 67 124 152 -12 68 -69 98 -180 98 -58 0
-76 -4 -89 -18z m175 -79 c19 -17 23 -49 10 -71 -9 -13 -92 -19 -111 -8 -6 4
-11 27 -11 52 l0 44 47 0 c29 0 53 -6 65 -17z"/>
<path d="M4444 1586 c-3 -8 -4 -25 -2 -38 3 -20 9 -23 54 -26 l51 -3 6 -126
c7 -127 15 -153 48 -153 31 0 39 33 39 159 l0 121 44 0 c27 0 51 6 60 16 19
18 19 20 6 45 -10 17 -23 19 -156 19 -116 0 -146 -3 -150 -14z"/>
<path d="M4831 1586 c-8 -9 -11 -64 -9 -171 3 -135 5 -159 20 -169 13 -8 22
-6 37 8 19 18 21 30 21 167 0 121 -3 150 -16 163 -19 20 -38 20 -53 2z"/>
<path d="M5016 1584 c-13 -13 -16 -43 -16 -168 0 -157 5 -176 42 -176 23 0 38
30 38 79 l0 41 68 0 c70 0 92 10 92 42 0 25 -39 38 -111 38 l-60 0 3 43 3 42
94 5 c73 4 96 9 104 22 8 12 7 21 -2 32 -19 23 -232 23 -255 0z"/>
<path d="M5410 1581 c-108 -57 -132 -192 -51 -285 27 -30 88 -56 133 -56 131
1 214 151 148 269 -47 82 -151 115 -230 72z m139 -87 c26 -22 31 -33 31 -71 0
-113 -145 -143 -180 -37 -33 98 71 174 149 108z"/>
<path d="M5740 1581 c-5 -11 -10 -82 -10 -158 0 -184 0 -183 124 -183 98 0
116 7 116 46 0 28 -23 36 -98 33 l-57 -3 -3 129 c-1 74 -7 134 -14 142 -16 19
-46 16 -58 -6z"/>
<path d="M6050 1585 c-16 -20 -14 -313 2 -332 18 -22 48 -15 58 13 13 34 13
290 0 315 -13 23 -43 25 -60 4z"/>
<path d="M6295 1585 c-69 -32 -105 -87 -105 -160 0 -137 133 -224 255 -165
111 54 135 182 52 277 -53 60 -135 80 -202 48z m133 -90 c51 -43 51 -107 1
-154 -36 -33 -84 -28 -125 13 -35 35 -41 57 -25 99 26 67 96 87 149 42z"/>
</g>
</svg>
